<svg width="129" height="20" viewBox="0 0 129 20" fill="none" xmlns="http://www.w3.org/2000/svg">
<path d="M118.577 4.08051L108.664 4.06567C108.658 4.81311 108.649 5.45644 108.66 6.20383H112.36L112.339 15.7953H114.824V6.20383C116.018 6.20378 117.382 6.22477 118.571 6.20383C118.58 5.46256 118.582 4.8218 118.577 4.08051Z" fill="#1E293B"/>
<path d="M55.4019 15.7899V4.0603H53.1463V6.82535V15.7899H55.4019Z" fill="#1E293B"/>
<path d="M48.1504 4.07571C48.9448 4.046 49.8604 4.06832 50.6638 4.06879L50.6541 15.7763L48.5306 15.7835C46.5698 13.3251 44.5939 10.8793 42.6029 8.44621C42.5823 10.8758 42.6406 13.3502 42.5883 15.7708C41.8099 15.8046 40.8717 15.7826 40.0809 15.7854C40.0424 14.5152 40.0766 13.0571 40.077 11.7707L40.0775 4.08194C40.7075 4.04579 41.5174 4.07057 42.1619 4.07434C44.0721 6.40453 46.3631 9.02714 48.1522 11.3972L48.1504 4.07571Z" fill="#1E293B"/>
<path d="M101.297 4.06971L103.932 4.06567C103.932 4.06567 106.176 8.97479 107.298 11.4015C107.971 12.8577 109.336 15.7774 109.336 15.7774L106.515 15.7854L105.412 13.1707L103.753 13.1735L99.683 13.1721L98.548 15.7811L95.803 15.7872C96.2956 14.5946 97.0863 13.0517 97.6528 11.8473L101.297 4.06971ZM100.593 11.1097C101.196 11.1043 101.798 11.1034 102.4 11.1073L104.555 11.1121C104.332 10.6605 102.632 6.72286 102.546 6.65807C102.011 8.06 101.202 9.70847 100.593 11.1097Z" fill="#1E293B"/>
<path d="M95.3517 5.51804C93.788 3.87125 91.8599 3.51532 89.6711 3.63422C87.7249 3.93872 86.2203 4.49857 85.0049 6.16792C83.1074 8.77307 83.5707 12.659 86.2037 14.5982C88.5257 16.3082 92.9468 16.1902 95.0827 14.206L95.0863 8.81415L90.2677 8.83029V10.7962L92.6389 10.7828L92.6384 12.9224C89.3757 14.7664 85.6346 12.3475 86.693 8.61412C86.9692 7.6274 87.629 6.79192 88.5262 6.29391C90.3776 5.26259 92.1413 5.89451 93.6667 7.12664C94.2104 6.59365 94.8329 6.04617 95.3517 5.51804Z" fill="#1E293B"/>
<path d="M128.999 4.0942L120.189 4.09326V15.7848L128.999 15.7896V13.641L122.718 13.6461L122.727 10.9139L122.873 10.9109C124.693 10.908 128.496 10.899 128.496 10.899V8.78683L122.727 8.78741L122.719 6.22498L128.999 6.21268V4.0942Z" fill="#1E293B"/>
<path d="M35.3119 4.06987C36.1428 4.05839 36.9739 4.05725 37.8048 4.06641L37.8047 6.32004L37.8057 9.10852C37.8078 10.9278 37.8672 12.8097 36.5507 14.2418C34.6836 16.2726 30.619 16.2802 28.6473 14.4127C27.0016 12.854 27.2235 10.5329 27.212 8.45695C27.2038 6.99939 27.2471 5.52449 27.2055 4.06739C28.0484 4.05942 28.8914 4.05963 29.7342 4.06796C29.6938 5.96335 29.7702 7.88714 29.7336 9.78201C29.7175 10.6136 29.7517 11.4579 30.131 12.1893C30.5585 13.0136 31.637 13.5398 32.5494 13.511C35.7062 13.4114 35.3109 10.3224 35.3081 8.31715L35.3119 4.06987Z" fill="#1E293B"/>
<path d="M72.9222 3.63452C74.5928 3.52673 76.1088 3.77731 77.5745 4.58441C77.4462 5.08094 76.9852 6.19799 76.7733 6.68668C75.4851 5.80571 72.9636 5.21558 71.6126 6.32427C71.1525 6.70174 71.1593 7.57642 71.6743 7.93182C72.2325 8.31138 73.0848 8.49515 73.754 8.60943C76.0166 8.97636 78.6528 9.84823 78.1112 12.6756C77.6158 15.2626 74.9823 15.866 72.6959 15.7846C71.1137 15.7728 69.5415 15.2182 68.2584 14.3245C68.5771 13.7204 68.8946 12.9531 69.2021 12.3159C70.6347 13.2126 72.0014 13.7988 73.7484 13.6079C74.2415 13.5622 74.925 13.3916 75.2303 12.9811C76.6307 11.1015 72.7763 10.8566 71.6909 10.4996C70.6168 10.1948 69.3919 9.67235 68.8986 8.59769C68.4209 7.55731 68.584 6.15374 69.3266 5.25501C70.2532 4.13365 71.5303 3.81061 72.9222 3.63452Z" fill="#1E293B"/>
<path d="M72.7118 0.000571124L72.769 0C72.739 0.0599548 72.4008 0.194181 72.3131 0.235267C70.9922 0.867865 69.8466 1.82873 68.9804 3.03056C68.1088 4.23578 67.464 5.72546 66.9326 7.12351C65.8382 10.003 64.7095 12.889 63.6584 15.7846L61.2701 15.7899L57.9032 6.66876C57.6226 5.98115 57.1914 4.78656 56.9801 4.08915C57.7826 4.04908 58.689 4.06909 59.5 4.07077C59.8207 4.82129 60.2373 6.08582 60.5291 6.88804C61.2113 8.74813 61.8768 10.6147 62.5253 12.4874C62.7327 11.665 63.2017 10.5855 63.5185 9.77839C65.5243 4.66864 66.5221 0.468219 72.7118 0.000571124Z" fill="#1E293B"/>
<path d="M14.7979 15.8279C16.5613 14.0891 17.552 11.7308 17.552 9.27177C17.552 6.81275 16.5613 4.45442 14.7979 2.71564C13.0346 0.976845 10.6429 4.42149e-07 8.14914 0C5.65536 -4.42149e-07 3.26373 0.976841 1.50036 2.71563L4.60313 5.77514C5.09274 6.25792 5.88336 6.23382 6.50624 5.93558C7.01349 5.69271 7.57453 5.56304 8.14914 5.56304C9.14666 5.56304 10.1033 5.95379 10.8086 6.64933C11.514 7.34482 11.9103 8.28816 11.9103 9.27177C11.9103 9.83837 11.7788 10.3916 11.5325 10.8918C11.23 11.506 11.2056 12.2856 11.6952 12.7684L14.7979 15.8279Z" fill="#1E293B"/>
<path d="M13.1639 17.3073H8.56086C7.89586 17.3073 7.25807 17.0468 6.78785 16.5831L0.734407 10.614C0.264174 10.1504 0 9.52147 0 8.86574V4.32682L13.1639 17.3073Z" fill="#3B83F6"/>
<path d="M4.70141 17.3072H1.88056C0.841956 17.3072 0 16.4771 0 15.4529V12.6714L4.70141 17.3072Z" fill="#3B83F6"/>
</svg>
