<svg preserveAspectRatio="none" width="100%" height="100%" overflow="visible" style="display: block;" viewBox="0 0 47.2931 15" fill="none" xmlns="http://www.w3.org/2000/svg">
<g id="GATE">
<path id="Vector" d="M37.3427 0H47.293V2.5H40.1287V6.25H44.8054V8.75H40.1287V12.5H47.293V15H37.3427V0Z" fill="var(--fill-0, #1E293B)"/>
<path id="Vector_2" d="M24.895 0H34.8454V2.5H31.2632V15H28.4772V2.5H24.895V0Z" fill="var(--fill-0, #1E293B)"/>
<path id="Vector_3" d="M12.4474 0H22.3977V15H19.6117V8.75H15.2335V15H12.4474V0ZM15.2335 2.5V6.25H19.6117V2.5H15.2335Z" fill="var(--fill-0, #1E293B)"/>
<path id="Vector_4" d="M0 0H9.95031V2.5H2.78609V12.5H7.16423V8.75H4.97516V6.25H9.95031V15H7.16423V13.425L5.59705 15H0V0Z" fill="var(--fill-0, #1E293B)"/>
</g>
</svg>
