<svg preserveAspectRatio="none" width="100%" height="100%" overflow="visible" style="display: block;" viewBox="0 0 20 20" fill="none" xmlns="http://www.w3.org/2000/svg">
<g id="Vector">
<path d="M16.8619 18.2904C18.8712 16.2811 20 13.5559 20 10.7143C20 7.8727 18.8712 5.14745 16.8619 3.13814C14.8526 1.12883 12.1273 5.1094e-07 9.28573 0C6.44414 -5.1094e-07 3.71893 1.12882 1.70962 3.13814L5.24514 6.67365C5.80304 7.23155 6.70394 7.2037 7.41369 6.85905C7.99168 6.5784 8.63098 6.42855 9.28573 6.42855C10.4224 6.42855 11.5125 6.8801 12.3162 7.68385C13.1199 8.48755 13.5714 9.57765 13.5714 10.7143C13.5714 11.369 13.4216 12.0084 13.141 12.5864C12.7963 13.2961 12.7685 14.197 13.3263 14.7549L16.8619 18.2904Z" fill="#1E293B"/>
<path d="M15 20H9.75487C8.99712 20 8.27038 19.699 7.73458 19.1631L0.836838 12.2654C0.301019 11.7296 0 11.0028 0 10.2451V5L15 20Z" fill="#3B83F6"/>
<path d="M5.35713 20H2.14285C0.959387 20 0 19.0406 0 17.8571V14.6428L5.35713 20Z" fill="#3B83F6"/>
</g>
</svg>
