<svg preserveAspectRatio="none" width="100%" height="100%" overflow="visible" style="display: block;" viewBox="0 0 21 21" fill="none" xmlns="http://www.w3.org/2000/svg">
<g id="Vector">
<path d="M17.705 19.205C19.8147 17.0952 21 14.2337 21 11.25C21 8.26633 19.8147 5.40482 17.705 3.29505C15.5952 1.18527 12.7337 5.36487e-07 9.75002 0C6.76635 -5.36487e-07 3.90488 1.18526 1.7951 3.29505L5.5074 7.00733C6.09319 7.59313 7.03914 7.56388 7.78437 7.202C8.39127 6.90732 9.06253 6.74998 9.75002 6.74998C10.9435 6.74998 12.0881 7.2241 12.932 8.06804C13.7759 8.91193 14.25 10.0565 14.25 11.25C14.25 11.9375 14.0927 12.6088 13.798 13.2157C13.4361 13.9609 13.4069 14.9068 13.9926 15.4926L17.705 19.205Z" fill="#1E293B"/>
<path d="M15.75 21H10.2426C9.44698 21 8.68389 20.6839 8.12131 20.1213L0.878679 12.8787C0.31607 12.3161 0 11.553 0 10.7574V5.25L15.75 21Z" fill="#006FFF"/>
<path d="M5.62499 21H2.24999C1.00736 21 0 19.9926 0 18.75V15.3749L5.62499 21Z" fill="#006FFF"/>
</g>
</svg>
