<svg preserveAspectRatio="xMidYMid meet" width="100%" height="100%" overflow="visible" style="display: block;" viewBox="0 0 16 16" fill="none" xmlns="http://www.w3.org/2000/svg">
<g id="help">
<g id="Vector">
<path fill-rule="evenodd" clip-rule="evenodd" d="M7.33203 11.832V10.4987H8.33203V11.832H7.33203Z" fill="#64748B"/>
<path fill-rule="evenodd" clip-rule="evenodd" d="M7.83203 2.33203C4.79447 2.33203 2.33203 4.79447 2.33203 7.83203C2.33203 10.8696 4.79447 13.332 7.83203 13.332C10.8696 13.332 13.332 10.8696 13.332 7.83203C13.332 4.79447 10.8696 2.33203 7.83203 2.33203ZM1.33203 7.83203C1.33203 4.24218 4.24218 1.33203 7.83203 1.33203C11.4219 1.33203 14.332 4.24218 14.332 7.83203C14.332 11.4219 11.4219 14.332 7.83203 14.332C4.24218 14.332 1.33203 11.4219 1.33203 7.83203Z" fill="#64748B"/>
<path fill-rule="evenodd" clip-rule="evenodd" d="M7.83203 4.9987C6.97484 4.9987 6.33203 5.64151 6.33203 6.4987H5.33203C5.33203 5.08922 6.42256 3.9987 7.83203 3.9987C9.16835 3.9987 10.332 4.88802 10.332 6.23203C10.332 7.51528 9.44754 8.04587 9.09536 8.25713L9.08928 8.26078C8.93898 8.35096 8.73533 8.48907 8.57391 8.6634C8.41107 8.83927 8.33203 9.00665 8.33203 9.16536V9.83203H7.33203V9.16536C7.33203 8.65741 7.58632 8.25813 7.84015 7.98399C8.0954 7.70833 8.39175 7.5131 8.57478 7.40328C8.89349 7.21206 9.33203 6.94134 9.33203 6.23203C9.33203 5.57605 8.76238 4.9987 7.83203 4.9987Z" fill="#64748B"/>
</g>
</g>
</svg>
