<svg preserveAspectRatio="xMidYMid meet" width="100%" height="100%" overflow="visible" style="display: block;" viewBox="0 0 24 24" fill="none" xmlns="http://www.w3.org/2000/svg">
<g id="&#236;&#134;&#144;&#235;&#176;&#148;&#235;&#139;&#165;">
<path id="Vector" d="M11.6845 11.6205V2.25904C11.6845 2.04398 11.752 1.86375 11.8868 1.71835C12.0216 1.57278 12.1887 1.5 12.3879 1.5C12.5873 1.5 12.7542 1.57278 12.8887 1.71835C13.0234 1.86375 13.0908 2.04398 13.0908 2.25904V11.6205H11.6845ZM8.08781 11.6205V3.27108C8.08781 3.05602 8.15523 2.8758 8.29008 2.7304C8.42492 2.58483 8.59195 2.51205 8.79117 2.51205C8.99055 2.51205 9.1575 2.58483 9.29203 2.7304C9.42672 2.8758 9.49406 3.05602 9.49406 3.27108V11.6205H8.08781ZM12.0019 22.5C9.91406 22.5 8.1418 21.7141 6.68508 20.1424C5.22836 18.5709 4.5 16.658 4.5 14.4036V5.04217C4.5 4.82711 4.56742 4.64688 4.70227 4.50148C4.83711 4.35592 5.00414 4.28313 5.20336 4.28313C5.40273 4.28313 5.56969 4.35592 5.70422 4.50148C5.83891 4.64688 5.90625 4.82711 5.90625 5.04217V14.4036C5.90625 16.2422 6.49609 17.7982 7.67578 19.0717C8.85547 20.3452 10.2969 20.9819 12 20.9819C13.7031 20.9819 15.1445 20.3452 16.3242 19.0717C17.5039 17.7982 18.0938 16.2422 18.0938 14.4036V10.6084H17.8594C17.5336 10.6084 17.2569 10.7314 17.0292 10.9773C16.8014 11.2231 16.6875 11.5218 16.6875 11.8735V15.3767H14.3798C13.792 15.3767 13.2935 15.5976 12.8843 16.0393C12.4751 16.4811 12.2705 17.0193 12.2705 17.6538V18.4128H10.8642V17.6538C10.8642 16.6055 11.2073 15.7108 11.8936 14.9699C12.58 14.229 13.4087 13.8586 14.3798 13.8586H15.2812V4.28313C15.2812 4.06807 15.3487 3.88784 15.4835 3.74245C15.6184 3.59688 15.7854 3.5241 15.9846 3.5241C16.184 3.5241 16.3509 3.59688 16.4855 3.74245C16.6202 3.88784 16.6875 4.06807 16.6875 4.28313V9.46204C16.8617 9.34666 17.0449 9.25583 17.2371 9.18954C17.4295 9.12342 17.6369 9.09036 17.8594 9.09036H19.5V14.4036C19.5 16.658 18.7722 18.5709 17.3166 20.1424C15.8611 21.7141 14.0895 22.5 12.0019 22.5Z" fill="var(--fill-0, white)"/>
</g>
</svg>
