<svg preserveAspectRatio="xMidYMid meet" width="100%" height="100%" overflow="visible" style="display: block;" viewBox="0 0 16 16" fill="none" xmlns="http://www.w3.org/2000/svg">
<g id="history">
<g id="Vector">
<path fill-rule="evenodd" clip-rule="evenodd" d="M1.33203 9.33203H5.16536V10.332H2.33203V13.832H1.33203V9.33203Z" fill="#64748B"/>
<path fill-rule="evenodd" clip-rule="evenodd" d="M7.83203 2.33203C4.79417 2.33203 2.33203 4.79417 2.33203 7.83203H1.33203C1.33203 4.24189 4.24189 1.33203 7.83203 1.33203C11.4222 1.33203 14.332 4.24189 14.332 7.83203C14.332 11.4222 11.4222 14.332 7.83203 14.332C5.33552 14.332 3.16856 12.9242 2.08013 10.862C2.06421 10.8438 2.043 10.8198 2.0173 10.7911C1.95791 10.7245 1.88006 10.6382 1.80046 10.5499L1.79381 10.5426C1.71257 10.4525 1.62998 10.3609 1.56681 10.29C1.53541 10.2548 1.50728 10.223 1.48596 10.1983C1.47558 10.1863 1.46468 10.1736 1.4551 10.1619C1.45055 10.1563 1.44373 10.1479 1.43648 10.1384C1.4329 10.1336 1.42708 10.1258 1.42045 10.1161C1.41621 10.1099 1.40041 10.0868 1.38482 10.0556L2.27924 9.60842C2.26426 9.57845 2.2495 9.55689 2.24604 9.55184C2.24045 9.54367 2.23575 9.53738 2.23379 9.53479C2.22977 9.52948 2.22734 9.52657 2.22822 9.52765C2.22954 9.52926 2.2338 9.53433 2.24223 9.54408C2.25854 9.56293 2.28266 9.59025 2.31327 9.62459C2.37412 9.69285 2.45458 9.78209 2.53642 9.87284L2.5445 9.8818C2.62306 9.96891 2.70227 10.0567 2.76332 10.1251C2.79473 10.1603 2.82278 10.192 2.84401 10.2164C2.85437 10.2284 2.8651 10.2409 2.87447 10.2522C2.87894 10.2576 2.88549 10.2657 2.89244 10.2747C2.89587 10.2792 2.90139 10.2865 2.90768 10.2956C2.91174 10.3014 2.92658 10.3227 2.94161 10.3514L2.94287 10.3538C3.85774 12.1236 5.70427 13.332 7.83203 13.332C10.8699 13.332 13.332 10.8699 13.332 7.83203C13.332 4.79417 10.8699 2.33203 7.83203 2.33203Z" fill="#64748B"/>
<path fill-rule="evenodd" clip-rule="evenodd" d="M7.33203 4.4987H8.33203V7.62492L10.1856 9.47848L9.47848 10.1856L7.33203 8.03914V4.4987Z" fill="#64748B"/>
</g>
</g>
</svg>
