<svg preserveAspectRatio="xMidYMid meet" width="100%" height="100%" overflow="visible" style="display: block;" viewBox="0 0 24 24" fill="none" xmlns="http://www.w3.org/2000/svg">
<g id="bar-chart-square">
<g id="Vector">
<path fill-rule="evenodd" clip-rule="evenodd" d="M0 2C0 0.89543 0.895431 0 2 0H22C23.1046 0 24 0.895431 24 2V22C24 23.1046 23.1046 24 22 24H2C0.89543 24 0 23.1046 0 22V2ZM3.84616 1.84615C2.74159 1.84615 1.84615 2.74158 1.84615 3.84615V20.1538C1.84615 21.2584 2.74158 22.1538 3.84615 22.1538H20.1538C21.2584 22.1538 22.1538 21.2584 22.1538 20.1538V3.84616C22.1538 2.74159 21.2584 1.84615 20.1538 1.84615H3.84616Z" fill="var(--fill-0, white)"/>
<path fill-rule="evenodd" clip-rule="evenodd" d="M7.07692 10.7692C7.58672 10.7692 8 11.1825 8 11.6923V17.2308C8 17.7406 7.58672 18.1538 7.07692 18.1538C6.56712 18.1538 6.15385 17.7406 6.15385 17.2308V11.6923C6.15385 11.1825 6.56712 10.7692 7.07692 10.7692Z" fill="var(--fill-0, white)"/>
<path fill-rule="evenodd" clip-rule="evenodd" d="M12 8.30769C12.5098 8.30769 12.9231 8.72097 12.9231 9.23077V17.2308C12.9231 17.7406 12.5098 18.1538 12 18.1538C11.4902 18.1538 11.0769 17.7406 11.0769 17.2308V9.23077C11.0769 8.72097 11.4902 8.30769 12 8.30769Z" fill="var(--fill-0, white)"/>
<path fill-rule="evenodd" clip-rule="evenodd" d="M16.9231 5.84615C17.4329 5.84615 17.8462 6.25943 17.8462 6.76923V17.2308C17.8462 17.7406 17.4329 18.1538 16.9231 18.1538C16.4133 18.1538 16 17.7406 16 17.2308V6.76923C16 6.25943 16.4133 5.84615 16.9231 5.84615Z" fill="var(--fill-0, white)"/>
</g>
</g>
</svg>
