<svg preserveAspectRatio="xMidYMid meet" width="100%" height="100%" overflow="visible" style="display: block;" viewBox="0 0 16 16" fill="none" xmlns="http://www.w3.org/2000/svg">
<g id="verified-badge" clip-path="url(#clip0_0_15)">
<g id="Vector">
<path d="M8.01203 15.1681C7.43203 15.1548 6.8987 14.9815 6.4387 14.6815C6.0987 14.4548 5.80536 14.1681 5.58536 13.8281C5.18536 13.9081 4.7787 13.9081 4.3787 13.8281C3.8387 13.7148 3.3387 13.4548 2.9387 13.0815C2.5387 12.6615 2.2787 12.1615 2.17203 11.6215C2.09203 11.2215 2.09203 10.8148 2.17203 10.4215C1.83203 10.2015 1.54536 9.90813 1.3187 9.56813C1.0187 9.10813 0.845365 8.57479 0.832031 8.02146C0.845365 7.44146 1.0187 6.90146 1.3187 6.44146C1.54536 6.10146 1.83203 5.81479 2.17203 5.58813C2.09203 5.19479 2.08536 4.78146 2.17203 4.38146C2.28536 3.84146 2.54536 3.34146 2.9187 2.94146C3.3387 2.54146 3.8387 2.28146 4.3787 2.16813C4.7787 2.08813 5.18536 2.08813 5.58536 2.16813C5.80536 1.82813 6.09203 1.54146 6.43203 1.31479C6.89203 1.01479 7.42536 0.841458 7.9787 0.828125C8.5587 0.841458 9.09203 1.00813 9.55203 1.31479C9.89203 1.53479 10.1854 1.82813 10.4054 2.16813C10.7987 2.08813 11.212 2.08813 11.6054 2.16813C12.1454 2.28146 12.6454 2.54146 13.0454 2.92146C13.4454 3.34146 13.7054 3.84146 13.8187 4.38146C13.8987 4.78146 13.8987 5.19479 13.8187 5.58813C14.1587 5.80813 14.4454 6.10146 14.672 6.44146C14.972 6.90146 15.1454 7.43479 15.1587 7.98813V8.01479C15.1454 8.56813 14.972 9.10146 14.672 9.56146C14.452 9.90146 14.1654 10.1881 13.832 10.4081C13.9187 10.8015 13.9254 11.2148 13.8454 11.6215C13.732 12.1681 13.4587 12.6681 13.0654 13.0681C12.672 13.4681 12.172 13.7348 11.6187 13.8481C11.2187 13.9348 10.8054 13.9281 10.4054 13.8348C10.1854 14.1681 9.8987 14.4615 9.5587 14.6815C9.0987 14.9815 8.5587 15.1548 8.00536 15.1681H8.01203ZM5.82536 12.7415C6.01203 12.7415 6.19203 12.8481 6.2787 13.0281C6.43203 13.3615 6.6787 13.6415 6.98536 13.8415C7.29203 14.0415 7.64537 14.1548 8.01203 14.1615C8.35203 14.1548 8.70537 14.0415 9.01203 13.8415C9.3187 13.6415 9.5587 13.3615 9.7187 13.0281C9.83203 12.7881 10.112 12.6748 10.3587 12.7748C10.6987 12.9081 11.0654 12.9415 11.4254 12.8681C11.7854 12.7948 12.1054 12.6215 12.3654 12.3615C12.6254 12.1015 12.7987 11.7748 12.872 11.4215C12.9454 11.0615 12.912 10.6948 12.7787 10.3548C12.6787 10.1081 12.792 9.82813 13.032 9.71479C13.3654 9.56146 13.6454 9.31479 13.8454 9.00813C14.0454 8.70813 14.152 8.35479 14.1654 7.99479C14.152 7.63479 14.0387 7.28146 13.8454 6.98146C13.6454 6.67479 13.3654 6.42813 13.032 6.27479C12.7987 6.16146 12.6854 5.89479 12.772 5.64813C12.8987 5.30813 12.9254 4.93479 12.852 4.57479C12.7787 4.21479 12.6054 3.88813 12.352 3.62146C12.1054 3.38813 11.772 3.21479 11.4187 3.14146C11.0587 3.06813 10.692 3.09479 10.3454 3.22146C10.0987 3.30813 9.83203 3.20146 9.7187 2.96146C9.56536 2.62813 9.3187 2.34813 9.01203 2.14813C8.70537 1.94813 8.35203 1.83479 7.98536 1.82813C7.64536 1.83479 7.29203 1.94813 6.98536 2.14813C6.6787 2.34813 6.4387 2.62813 6.28536 2.96146C6.1787 3.19479 5.90536 3.30813 5.6587 3.22146C5.31203 3.09479 4.94536 3.06813 4.58536 3.14146C4.22536 3.21479 3.89203 3.38813 3.62536 3.64146C3.39203 3.88813 3.2187 4.21479 3.14536 4.57479C3.07203 4.93479 3.0987 5.30146 3.22536 5.64813C3.3187 5.89479 3.20536 6.16146 2.96536 6.27479C2.63203 6.42813 2.35203 6.67479 2.14536 6.98146C1.94536 7.28813 1.83203 7.64146 1.8187 8.00813C1.83203 8.34813 1.94536 8.70146 2.14536 9.00813C2.34536 9.31479 2.63203 9.56146 2.96536 9.71479C3.1987 9.82813 3.31203 10.0948 3.22536 10.3415C3.0987 10.6815 3.07203 11.0548 3.14536 11.4148C3.2187 11.7748 3.39203 12.1015 3.6387 12.3681C3.88536 12.6015 4.21203 12.7681 4.57203 12.8481C4.93203 12.9215 5.2987 12.8948 5.64536 12.7681C5.6987 12.7481 5.7587 12.7415 5.81203 12.7415H5.82536Z" fill="var(--fill-0, #64748B)"/>
<path d="M7.27203 10.7148L4.65203 8.14813L5.34536 7.43479L7.2387 9.28813L10.632 5.66146L11.3654 6.34146L7.27203 10.7148Z" fill="var(--fill-0, #64748B)"/>
</g>
</g>
<defs>
<clipPath id="clip0_0_15">
<rect width="16" height="16" fill="white"/>
</clipPath>
</defs>
</svg>
