<svg preserveAspectRatio="xMidYMid meet" width="100%" height="100%" overflow="visible" style="display: block;" viewBox="0 0 16 16" fill="none" xmlns="http://www.w3.org/2000/svg">
<g id="gallery">
<g id="Vector">
<path d="M4.83464 7.16667C5.36797 7.16667 5.83464 6.7 5.83464 6.16667C5.83464 5.63333 5.36797 5.16667 4.83464 5.16667C4.3013 5.16667 3.83464 5.63333 3.83464 6.16667C3.83464 6.7 4.3013 7.16667 4.83464 7.16667Z" fill="#64748B"/>
<path fill-rule="evenodd" clip-rule="evenodd" d="M10.9669 5.84318L14.8249 9.11886L14.1777 9.88115L10.969 7.15683L3.49282 13.5468L2.8431 12.7866L10.9669 5.84318Z" fill="#64748B"/>
<path fill-rule="evenodd" clip-rule="evenodd" d="M2.5013 3C2.04106 3 1.66797 3.3731 1.66797 3.83333V11.8333C1.66797 12.2936 2.04106 12.6667 2.5013 12.6667H13.168C13.6282 12.6667 14.0013 12.2936 14.0013 11.8333V3.83333C14.0013 3.3731 13.6282 3 13.168 3H2.5013ZM0.667969 3.83333C0.667969 2.82081 1.48878 2 2.5013 2H13.168C14.1805 2 15.0013 2.82081 15.0013 3.83333V11.8333C15.0013 12.8459 14.1805 13.6667 13.168 13.6667H2.5013C1.48878 13.6667 0.667969 12.8459 0.667969 11.8333V3.83333Z" fill="#64748B"/>
</g>
</g>
</svg>
