<svg preserveAspectRatio="xMidYMid meet" width="100%" height="100%" overflow="visible" style="display: block;" viewBox="0 0 16 16" fill="none" xmlns="http://www.w3.org/2000/svg">
<g id="clock">
<g id="Vector">
<path fill-rule="evenodd" clip-rule="evenodd" d="M8.33203 7.33203V3.83203H7.33203V8.33203H10.4987V7.33203H8.33203Z" fill="#64748B"/>
<path fill-rule="evenodd" clip-rule="evenodd" d="M7.83203 2.33203C4.79447 2.33203 2.33203 4.79447 2.33203 7.83203C2.33203 10.8696 4.79447 13.332 7.83203 13.332C10.8696 13.332 13.332 10.8696 13.332 7.83203C13.332 4.79447 10.8696 2.33203 7.83203 2.33203ZM1.33203 7.83203C1.33203 4.24218 4.24218 1.33203 7.83203 1.33203C11.4219 1.33203 14.332 4.24218 14.332 7.83203C14.332 11.4219 11.4219 14.332 7.83203 14.332C4.24218 14.332 1.33203 11.4219 1.33203 7.83203Z" fill="#64748B"/>
</g>
</g>
</svg>
