<svg preserveAspectRatio="xMidYMid meet" width="100%" height="100%" overflow="visible" style="display: block;" viewBox="0 0 16 16" fill="none" xmlns="http://www.w3.org/2000/svg">
<g id="authentication">
<g id="Vector">
<path fill-rule="evenodd" clip-rule="evenodd" d="M8.44662 0.929998V0.929998L12.4456 1.92975V1.92975C13.2616 2.13342 13.8346 2.86687 13.8346 3.70822V10.0002C13.8346 10.5776 13.5632 11.1205 13.1013 11.4669L9.1013 14.4669C8.44956 14.9555 7.55313 14.9555 6.90139 14.467L2.9013 11.4669C2.4394 11.1205 2.16797 10.5776 2.16797 10.0002V3.70822C2.16797 2.8672 2.74099 2.1342 3.55644 1.92988L7.55598 0.929998V0.929998C7.84778 0.856667 8.15482 0.856667 8.44662 0.929998ZM8.20265 1.89978C8.07073 1.86659 7.93188 1.86659 7.79995 1.89978L3.79949 2.8999C3.42828 2.99291 3.16797 3.32658 3.16797 3.70822V10.0002C3.16797 10.2628 3.29121 10.5093 3.5013 10.6669L7.50121 13.6668V13.6668C7.79746 13.8888 8.20516 13.8889 8.50139 13.6668L12.5013 10.6669C12.7114 10.5093 12.8346 10.2628 12.8346 10.0002V3.70822C12.8346 3.32566 12.5742 2.99245 12.2036 2.90002L8.20265 1.89978Z" fill="#64748B"/>
<path fill-rule="evenodd" clip-rule="evenodd" d="M8.40468 4.21079C7.22148 3.95505 6.16797 4.85426 6.16797 6.00089ZM8.19359 5.18825C7.64492 5.06956 7.16797 5.47963 7.16797 6.00089C7.16797 6.27697 7.30444 6.52287 7.51876 6.67662L7.79423 6.87424L7.35925 8.6273C7.33326 8.73179 7.41226 8.83422 7.5213 8.83422H8.46864C8.5781 8.83422 8.65769 8.7309 8.62945 8.62482L8.16916 6.89183L8.46534 6.69305C8.74511 6.50529 8.90658 6.15399 8.80337 5.76449M8.40468 4.21079C9.05519 4.35117 9.5976 4.85878 9.7699 5.50795C9.9514 6.19254 9.73993 6.84736 9.30855 7.28611L9.59582 8.36763C9.79292 9.10821 9.23517 9.83422 8.46864 9.83422H7.5213C6.76379 9.83422 6.20558 9.12321 6.38868 8.38648L6.66913 7.25624C6.36058 6.92998 6.16797 6.48939 6.16797 6.00089M8.19359 5.18825C8.48289 5.25063 8.729 5.48451 8.80337 5.76449Z" fill="#64748B"/>
</g>
</g>
</svg>
