<svg preserveAspectRatio="xMidYMid meet" width="100%" height="100%" overflow="visible" style="display: block;" viewBox="0 0 48 48" fill="none" xmlns="http://www.w3.org/2000/svg">
<g id="Frame 1984078200">
<rect width="48" height="48" rx="12" fill="var(--fill-0, #0FB981)"/>
<g id="Vector">
<path fill-rule="evenodd" clip-rule="evenodd" d="M22.1239 26.5344L28.9902 19.6866L30.1726 20.8722L22.1142 28.9089L17.8225 24.5577L19.0146 23.3819L22.1239 26.5344Z" fill="white"/>
<path fill-rule="evenodd" clip-rule="evenodd" d="M12 24C12 17.3981 17.3981 12 24 12C30.6019 12 36 17.3981 36 24C36 30.6019 30.6019 36 24 36C17.3981 36 12 30.6019 12 24ZM24 13.6744C18.3228 13.6744 13.6744 18.3228 13.6744 24C13.6744 29.6772 18.3228 34.3256 24 34.3256C29.6772 34.3256 34.3256 29.6772 34.3256 24C34.3256 18.3228 29.6772 13.6744 24 13.6744Z" fill="white"/>
</g>
</g>
</svg>
