<svg preserveAspectRatio="xMidYMid meet" width="100%" height="100%" overflow="visible" style="display: block;" viewBox="0 0 16 16" fill="none" xmlns="http://www.w3.org/2000/svg">
<g id="user">
<g id="Vector">
<path fill-rule="evenodd" clip-rule="evenodd" d="M5.60157 2.29008C6.18027 1.63759 7.05544 1.33203 7.83333 1.33203C8.63181 1.33203 9.41964 1.65039 10.042 2.26693C10.6944 2.84564 11 3.7208 11 4.4987C11 5.29718 10.6816 6.085 10.0651 6.70732C9.48639 7.3598 8.61123 7.66536 7.83333 7.66536C7.03489 7.66536 6.24709 7.34703 5.62479 6.73054C4.97687 6.15676 4.66667 5.34999 4.66667 4.4987C4.66667 3.70022 4.98503 2.91239 5.60157 2.29008ZM7.83333 2.33203C7.28293 2.33203 6.69772 2.55584 6.34295 2.96128L6.33199 2.97381L6.32022 2.98558C5.87766 3.42814 5.66667 3.96881 5.66667 4.4987C5.66667 5.10856 5.88576 5.63019 6.29592 5.98908L6.30845 6.00004L6.32022 6.01181C6.76278 6.45437 7.30345 6.66536 7.83333 6.66536C8.38374 6.66536 8.96895 6.44156 9.32371 6.03611L9.33467 6.02358L9.34645 6.01181C9.789 5.56925 10 5.02858 10 4.4987C10 3.94829 9.77619 3.36308 9.37075 3.00832L9.35822 2.99736L9.34645 2.98558C8.90389 2.54303 8.36322 2.33203 7.83333 2.33203Z" fill="#64748B"/>
<path fill-rule="evenodd" clip-rule="evenodd" d="M5.16667 10.332C4.63678 10.332 4.09611 10.543 3.65355 10.9856L3.64178 10.9974L3.62925 11.0083C3.2191 11.3672 3 11.8888 3 12.4987V14.4987H2V12.4987C2 11.6474 2.31021 10.8406 2.95812 10.2669C3.58043 9.65037 4.36822 9.33203 5.16667 9.33203H10.5C11.3513 9.33203 12.1581 9.64224 12.7318 10.2902C13.3483 10.9125 13.6667 11.7003 13.6667 12.4987V14.4987H12.6667V12.4987C12.6667 11.9688 12.4557 11.4281 12.0131 10.9856L12.0013 10.9738L11.9904 10.9613C11.6315 10.5511 11.1099 10.332 10.5 10.332H5.16667Z" fill="#64748B"/>
</g>
</g>
</svg>
