<svg preserveAspectRatio="xMidYMid meet" width="100%" height="100%" overflow="visible" style="display: block;" viewBox="0 0 24 24" fill="none" xmlns="http://www.w3.org/2000/svg">
<g id="face-id">
<g id="Vector">
<path fill-rule="evenodd" clip-rule="evenodd" d="M18.999 3.75H16V2.25H18.999C20.5182 2.25 21.75 3.48179 21.75 5.001V8H20.25V5.001C20.25 4.31021 19.6898 3.75 18.999 3.75Z" fill="var(--fill-0, white)"/>
<path fill-rule="evenodd" clip-rule="evenodd" d="M20.25 18.999V16H21.75V18.999C21.75 20.5182 20.5182 21.75 18.999 21.75H16V20.25H18.999C19.6898 20.25 20.25 19.6898 20.25 18.999Z" fill="var(--fill-0, white)"/>
<path fill-rule="evenodd" clip-rule="evenodd" d="M5.001 3.75C4.31021 3.75 3.75 4.31021 3.75 5.001V8H2.25V5.001C2.25 3.48179 3.48179 2.25 5.001 2.25H8V3.75H5.001Z" fill="var(--fill-0, white)"/>
<path fill-rule="evenodd" clip-rule="evenodd" d="M3.75 16V18.999C3.75 19.6898 4.31021 20.25 5.001 20.25H8V21.75H5.001C3.48179 21.75 2.25 20.5182 2.25 18.999V16H3.75Z" fill="var(--fill-0, white)"/>
<path fill-rule="evenodd" clip-rule="evenodd" d="M8 7.25C8.41421 7.25 8.75 7.58579 8.75 8V10C8.75 10.4142 8.41421 10.75 8 10.75C7.58579 10.75 7.25 10.4142 7.25 10V8C7.25 7.58579 7.58579 7.25 8 7.25Z" fill="var(--fill-0, white)"/>
<path fill-rule="evenodd" clip-rule="evenodd" d="M16 7.25C16.4142 7.25 16.75 7.58579 16.75 8V10C16.75 10.4142 16.4142 10.75 16 10.75C15.5858 10.75 15.25 10.4142 15.25 10V8C15.25 7.58579 15.5858 7.25 16 7.25Z" fill="var(--fill-0, white)"/>
<path fill-rule="evenodd" clip-rule="evenodd" d="M12 7.25C12.4142 7.25 12.75 7.58579 12.75 8V11.2C12.75 11.5391 12.6656 11.8817 12.4894 12.1633C12.3199 12.4344 11.9898 12.75 11.5 12.75H11C10.5858 12.75 10.25 12.4142 10.25 12C10.25 11.5858 10.5858 11.25 11 11.25H11.2477C11.2492 11.2344 11.25 11.2177 11.25 11.2V8C11.25 7.58579 11.5858 7.25 12 7.25Z" fill="var(--fill-0, white)"/>
<path fill-rule="evenodd" clip-rule="evenodd" d="M7.8548 14.557C8.09946 14.2228 8.56875 14.1501 8.90299 14.3948C9.57856 14.8893 10.6879 15.25 12 15.25C13.3121 15.25 14.4214 14.8893 15.097 14.3948C15.4313 14.1501 15.9005 14.2228 16.1452 14.557C16.3899 14.8913 16.3172 15.3605 15.983 15.6052C14.9946 16.3287 13.5539 16.75 12 16.75C10.4461 16.75 9.00544 16.3287 8.01701 15.6052C7.68277 15.3605 7.61015 14.8913 7.8548 14.557Z" fill="var(--fill-0, white)"/>
</g>
</g>
</svg>
