<svg preserveAspectRatio="xMidYMid meet" width="100%" height="100%" overflow="visible" style="display: block;" viewBox="0 0 16 16" fill="none" xmlns="http://www.w3.org/2000/svg">
<g id="file-find">
<g id="Vector">
<path fill-rule="evenodd" clip-rule="evenodd" d="M2.83203 2.66667C2.83203 2.02252 3.35456 1.5 3.9987 1.5H8.87247L13.1654 5.79289V8H12.1654V6.20711L8.45826 2.5H3.9987C3.90684 2.5 3.83203 2.57481 3.83203 2.66667V13.3333C3.83203 13.4252 3.90684 13.5 3.9987 13.5H7.33203V14.5H3.9987C3.35456 14.5 2.83203 13.9775 2.83203 13.3333V2.66667Z" fill="#64748B"/>
<path fill-rule="evenodd" clip-rule="evenodd" d="M9.16536 5.5V2H8.16536V6.5H12.6654V5.5H9.16536Z" fill="#64748B"/>
<path fill-rule="evenodd" clip-rule="evenodd" d="M8.16536 11.4073C8.16536 9.99052 9.32256 8.83333 10.7394 8.83333C12.1562 8.83333 13.3134 9.99052 13.3134 11.4073C13.3134 12.8241 12.1562 13.9813 10.7394 13.9813C9.32256 13.9813 8.16536 12.8241 8.16536 11.4073ZM10.7394 9.83333C9.87484 9.83333 9.16536 10.5428 9.16536 11.4073C9.16536 12.2719 9.87484 12.9813 10.7394 12.9813C11.6039 12.9813 12.3134 12.2719 12.3134 11.4073C12.3134 10.5428 11.6039 9.83333 10.7394 9.83333Z" fill="#64748B"/>
<path fill-rule="evenodd" clip-rule="evenodd" d="M12.5449 12.5058L14.3522 14.3131L13.6451 15.0202L11.8378 13.2129L12.5449 12.5058Z" fill="#64748B"/>
</g>
</g>
</svg>
