<svg preserveAspectRatio="xMidYMid meet" width="100%" height="100%" overflow="visible" style="display: block;" viewBox="0 0 16 16" fill="none" xmlns="http://www.w3.org/2000/svg">
<g id="activity">
<path id="Vector (Stroke)" d="M9.27474 2.83566C9.47437 2.81155 9.66911 2.90911 9.76888 3.0837L12.2917 7.49842H15.3346V8.49842H12.0013C11.8219 8.49842 11.6561 8.40225 11.5671 8.24646L9.48893 4.60975L7.14844 12.8025C7.09316 12.9958 6.92751 13.137 6.72786 13.1612C6.52823 13.1853 6.33349 13.0877 6.23372 12.9131L3.71094 8.49842H0.667969V7.49842H4.0013C4.18073 7.49842 4.34653 7.59458 4.43555 7.75037L6.51302 11.3864L8.85417 3.19438L8.87956 3.12472C8.95099 2.96761 9.09992 2.85681 9.27474 2.83566Z" fill="var(--fill-0, #64748B)"/>
</g>
</svg>
