<svg width="14" height="14" viewBox="0 0 14 14" fill="none" xmlns="http://www.w3.org/2000/svg">
<path fill-rule="evenodd" clip-rule="evenodd" d="M1.89844 4.08333C1.89844 3.20004 2.61931 2.47917 3.5026 2.47917H7.0026V3.35417H3.5026C3.10256 3.35417 2.77344 3.68329 2.77344 4.08333V10.5C2.77344 10.9 3.10256 11.2292 3.5026 11.2292H9.91927C10.3193 11.2292 10.6484 10.9 10.6484 10.5V7H11.5234V10.5C11.5234 11.3833 10.8026 12.1042 9.91927 12.1042H3.5026C2.61931 12.1042 1.89844 11.3833 1.89844 10.5V4.08333Z" fill="#8A58FF"/>
<path fill-rule="evenodd" clip-rule="evenodd" d="M12.562 2.05936L6.72863 7.89269L6.10991 7.27397L11.9432 1.44064L12.562 2.05936Z" fill="#8A58FF"/>
<path fill-rule="evenodd" clip-rule="evenodd" d="M11.8151 2.1875H8.7526V1.3125H12.6901V5.25H11.8151V2.1875Z" fill="#8A58FF"/>
</svg>
