<svg preserveAspectRatio="none" width="100%" height="100%" overflow="visible" style="display: block;" viewBox="0 0 18 18" fill="none" xmlns="http://www.w3.org/2000/svg">
<g id="Vector">
<path fill-rule="evenodd" clip-rule="evenodd" d="M15.4606 1.38462H12.6923V0H15.4606C16.863 0 18 1.13703 18 2.53938V5.30769H16.6154V2.53938C16.6154 1.90174 16.0983 1.38462 15.4606 1.38462Z" fill="var(--fill-0, #1E293B)"/>
<path fill-rule="evenodd" clip-rule="evenodd" d="M16.6154 15.4606V12.6923H18V15.4606C18 16.863 16.863 18 15.4606 18H12.6923V16.6154H15.4606C16.0983 16.6154 16.6154 16.0983 16.6154 15.4606Z" fill="var(--fill-0, #1E293B)"/>
<path fill-rule="evenodd" clip-rule="evenodd" d="M2.53938 1.38462C1.90174 1.38462 1.38462 1.90174 1.38462 2.53938V5.30769H0V2.53938C0 1.13703 1.13703 0 2.53938 0H5.30769V1.38462H2.53938Z" fill="var(--fill-0, #1E293B)"/>
<path fill-rule="evenodd" clip-rule="evenodd" d="M1.38462 12.6923V15.4606C1.38462 16.0983 1.90174 16.6154 2.53938 16.6154H5.30769V18H2.53938C1.13703 18 0 16.863 0 15.4606V12.6923H1.38462Z" fill="var(--fill-0, #1E293B)"/>
<path fill-rule="evenodd" clip-rule="evenodd" d="M5.30769 4.61538C5.69004 4.61538 6 4.92534 6 5.30769V7.15385C6 7.5362 5.69004 7.84615 5.30769 7.84615C4.92534 7.84615 4.61538 7.5362 4.61538 7.15385V5.30769C4.61538 4.92534 4.92534 4.61538 5.30769 4.61538Z" fill="var(--fill-0, #1E293B)"/>
<path fill-rule="evenodd" clip-rule="evenodd" d="M12.6923 4.61538C13.0747 4.61538 13.3846 4.92534 13.3846 5.30769V7.15385C13.3846 7.5362 13.0747 7.84615 12.6923 7.84615C12.31 7.84615 12 7.5362 12 7.15385V5.30769C12 4.92534 12.31 4.61538 12.6923 4.61538Z" fill="var(--fill-0, #1E293B)"/>
<path fill-rule="evenodd" clip-rule="evenodd" d="M9 4.61538C9.38235 4.61538 9.69231 4.92534 9.69231 5.30769V8.26154C9.69231 8.57458 9.61436 8.89076 9.45179 9.15078C9.29534 9.40102 8.99062 9.69231 8.53846 9.69231H8.07692C7.69457 9.69231 7.38462 9.38235 7.38462 9C7.38462 8.61765 7.69457 8.30769 8.07692 8.30769H8.30556C8.30692 8.29328 8.30769 8.27786 8.30769 8.26154V5.30769C8.30769 4.92534 8.61765 4.61538 9 4.61538Z" fill="var(--fill-0, #1E293B)"/>
<path fill-rule="evenodd" clip-rule="evenodd" d="M5.17366 11.3603C5.3995 11.0518 5.83269 10.9848 6.14122 11.2106C6.76482 11.667 7.78879 12 9 12C10.2112 12 11.2352 11.667 11.8588 11.2106C12.1673 10.9848 12.6005 11.0518 12.8263 11.3603C13.0522 11.6688 12.9851 12.102 12.6766 12.3279C11.7642 12.9957 10.4343 13.3846 9 13.3846C7.56567 13.3846 6.23579 12.9957 5.3234 12.3279C5.01487 12.102 4.94783 11.6688 5.17366 11.3603Z" fill="var(--fill-0, #1E293B)"/>
</g>
</svg>
