<svg preserveAspectRatio="xMidYMid meet" width="100%" height="100%" overflow="visible" style="display: block;" viewBox="0 0 20 20" fill="none" xmlns="http://www.w3.org/2000/svg">
<g id="mobile_camera_24dp_E3E3E3_FILL0_wght200_GRAD0_opsz24 1">
<path id="Vector" d="M4.83333 14.8391V17.4993V2.49935V14.8391ZM9.48958 5.07227C9.61194 4.9499 9.67313 4.7974 9.67313 4.61476C9.67313 4.43199 9.61194 4.27949 9.48958 4.15727C9.36722 4.0349 9.21472 3.97372 9.03208 3.97372C8.84931 3.97372 8.69681 4.0349 8.57458 4.15727C8.45222 4.27949 8.39104 4.43199 8.39104 4.61476C8.39104 4.7974 8.45222 4.9499 8.57458 5.07227C8.69681 5.19463 8.84931 5.25581 9.03208 5.25581C9.21472 5.25581 9.36722 5.19463 9.48958 5.07227ZM13.2308 14.8391H14.0642V16.9864C14.0642 17.3593 13.933 17.677 13.6706 17.9393C13.4084 18.2016 13.0908 18.3327 12.7179 18.3327H5.34625C4.97333 18.3327 4.65569 18.2016 4.39333 17.9393C4.13111 17.677 4 17.3593 4 16.9864V3.01227C4 2.62865 4.12847 2.30838 4.38542 2.05143C4.64236 1.79449 4.96264 1.66602 5.34625 1.66602H12.7179C13.0908 1.66602 13.4084 1.79713 13.6706 2.05935C13.933 2.32171 14.0642 2.63935 14.0642 3.01227V5.15956H13.2308V3.01227C13.2308 2.86268 13.1827 2.73977 13.0865 2.64352C12.9903 2.5474 12.8675 2.49935 12.7179 2.49935H5.34625C5.19667 2.49935 5.07375 2.5474 4.9775 2.64352C4.88139 2.73977 4.83333 2.86268 4.83333 3.01227V16.9864C4.83333 17.136 4.88139 17.2589 4.9775 17.3552C5.07375 17.4513 5.19667 17.4993 5.34625 17.4993H12.7179C12.8675 17.4993 12.9903 17.4513 13.0865 17.3552C13.1827 17.2589 13.2308 17.136 13.2308 16.9864V14.8391ZM11.1635 12.8518C10.8697 12.8518 10.6172 12.7464 10.4063 12.5354C10.1953 12.3244 10.0898 12.072 10.0898 11.7781V8.94164C10.0898 8.64789 10.1953 8.39546 10.4063 8.18435C10.6172 7.97338 10.8697 7.86789 11.1635 7.86789H11.8685L12.5898 7.14685H14L14.7213 7.86789H15.4263C15.7201 7.86789 15.9726 7.97338 16.1835 8.18435C16.3945 8.39546 16.5 8.64789 16.5 8.94164V11.7781C16.5 12.072 16.3945 12.3244 16.1835 12.5354C15.9726 12.7464 15.7201 12.8518 15.4263 12.8518H11.1635ZM14.174 11.231C14.4212 10.9837 14.5448 10.6906 14.5448 10.3518C14.5448 10.0132 14.4212 9.72296 14.174 9.48102C13.9266 9.23893 13.6335 9.11789 13.2948 9.11789C12.9562 9.11789 12.6632 9.23893 12.4158 9.48102C12.1685 9.72296 12.0448 10.0132 12.0448 10.3518C12.0448 10.6906 12.1685 10.9837 12.4158 11.231C12.6632 11.4782 12.9562 11.6018 13.2948 11.6018C13.6335 11.6018 13.9266 11.4782 14.174 11.231Z" fill="var(--fill-0, #475569)"/>
</g>
</svg>
