<svg preserveAspectRatio="none" width="100%" height="100%" overflow="visible" style="display: block;" viewBox="0 0 18.4184 19.0854" fill="none" xmlns="http://www.w3.org/2000/svg">
<g id="Vector">
<path fill-rule="evenodd" clip-rule="evenodd" d="M8.01278 10.75V8.75H9.51278V10.75C9.51278 12.1688 9.61126 13.269 9.88635 14.2777C10.1595 15.279 10.6168 16.2269 11.3785 17.3217L10.1471 18.1783C9.30873 16.9731 8.76611 15.871 8.43921 14.6723C8.1143 13.481 8.01278 12.2312 8.01278 10.75Z" fill="var(--fill-0, #1E293B)"/>
<path fill-rule="evenodd" clip-rule="evenodd" d="M13.4525 16.1859C12.3225 14.604 12.0128 12.8219 12.0128 10.75H13.5128C13.5128 12.6781 13.803 14.096 14.6731 15.3141L13.4525 16.1859Z" fill="var(--fill-0, #1E293B)"/>
<path fill-rule="evenodd" clip-rule="evenodd" d="M6.22159 6.54581C5.73058 7.15467 5.51278 7.97382 5.51278 8.75C5.51278 8.92653 5.5119 9.10736 5.511 9.29242C5.50256 11.0226 5.49232 13.1233 6.18392 15.544L6.18641 15.5526C6.42155 16.4149 6.78671 17.1357 7.21143 17.9741C7.28388 18.1171 7.35805 18.2635 7.4336 18.4146L6.09196 19.0854C6.02347 18.9484 5.95366 18.811 5.88337 18.6726C5.4601 17.8394 5.01903 16.9712 4.74041 15.9517C3.98834 13.317 4.00115 11.0145 4.01075 9.28769C4.01178 9.10168 4.01278 8.92235 4.01278 8.75C4.01278 7.72618 4.29498 6.54533 5.05397 5.60419C5.8346 4.63621 7.05796 4 8.76278 4C10.5454 4 11.7558 4.87713 12.4951 5.89742C13.2098 6.8837 13.5128 8.03681 13.5128 8.75H12.0128C12.0128 8.36319 11.8158 7.5163 11.2805 6.77758C10.7698 6.07287 9.98018 5.5 8.76278 5.5C7.4676 5.5 6.69096 5.96379 6.22159 6.54581Z" fill="var(--fill-0, #1E293B)"/>
<path fill-rule="evenodd" clip-rule="evenodd" d="M2.45275 5.04401C2.45289 5.04369 2.45303 5.04336 1.76278 4.75C1.07253 4.45664 1.07269 4.45628 1.07285 4.4559L1.07405 4.4531L1.07621 4.44809L1.08253 4.43374C1.08762 4.42229 1.0945 4.40708 1.10321 4.38838C1.12063 4.35099 1.14541 4.29954 1.17795 4.23606C1.24297 4.10919 1.33929 3.93361 1.47016 3.7256C1.73131 3.31053 2.13377 2.76039 2.7048 2.21C3.85569 1.10071 5.68485 0 8.36278 0C12.3066 0 14.6536 1.62088 15.9733 3.72674C17.2572 5.77548 17.5128 8.19119 17.5128 9.75C17.5128 11.2242 17.6381 11.8929 17.7796 12.2798C17.8476 12.4657 17.9262 12.6052 18.027 12.7624C18.0503 12.7988 18.0776 12.84 18.1076 12.8855C18.1981 13.0223 18.3133 13.1965 18.4184 13.3858L17.1072 14.1142C17.032 13.979 16.9652 13.878 16.8855 13.7575C16.8485 13.7016 16.8088 13.6416 16.7642 13.5719C16.6306 13.3635 16.4904 13.1218 16.3709 12.7952C16.1375 12.1571 16.0128 11.2758 16.0128 9.75C16.0128 8.30881 15.7684 6.22452 14.7023 4.52326C13.6719 2.87912 11.819 1.5 8.36278 1.5C6.14072 1.5 4.66988 2.39929 3.74576 3.29C3.27929 3.73961 2.9505 4.18947 2.73978 4.5244C2.63471 4.69139 2.55994 4.82831 2.51285 4.92019C2.48933 4.96608 2.4728 5.00058 2.46292 5.02178L2.45275 5.04401Z" fill="var(--fill-0, #1E293B)"/>
<path fill-rule="evenodd" clip-rule="evenodd" d="M1.51278 8.75V9.75C1.51278 9.76041 1.51256 9.77082 1.51213 9.78122C1.41706 12.0628 1.89129 14.2714 2.48849 16.5607L1.03707 16.9393C0.43553 14.6334 -0.0893023 12.2472 0.0127811 9.73458V8.75H1.51278Z" fill="var(--fill-0, #1E293B)"/>
</g>
</svg>
