<svg preserveAspectRatio="none" width="100%" height="100%" overflow="visible" style="display: block;" viewBox="0 0 20 20" fill="none" xmlns="http://www.w3.org/2000/svg">
<g id="label_important_22dp_64748B_FILL0_wght200_GRAD0_opsz24 (1) 1">
<path id="Vector" d="M2.5 15.8333L7.08333 10L2.5 4.15062H12.2275C12.4378 4.15062 12.637 4.19361 12.8252 4.27958C13.0133 4.36569 13.1677 4.49153 13.2885 4.65708L17.5 10L13.3046 15.3269C13.1837 15.4926 13.0293 15.6184 12.8413 15.7044C12.6531 15.7903 12.4538 15.8333 12.2435 15.8333H2.5ZM4.16667 15H12.2596C12.3451 15 12.4199 14.984 12.484 14.9519C12.5481 14.9198 12.6069 14.8717 12.6602 14.8077L16.4583 10L12.6602 5.17625C12.6069 5.11222 12.5481 5.06417 12.484 5.03208C12.4199 5 12.3451 4.98396 12.2596 4.98396H4.16667L8.125 10L4.16667 15Z" fill="var(--fill-0, #475569)"/>
</g>
</svg>
