<svg preserveAspectRatio="none" width="100%" height="100%" overflow="visible" style="display: block;" viewBox="0 0 18 14" fill="none" xmlns="http://www.w3.org/2000/svg">
<path id="Vector" d="M1.6155 14C1.15517 14 0.770833 13.8458 0.4625 13.5375C0.154167 13.2292 0 12.8448 0 12.3845V1.6155C0 1.15517 0.154167 0.770833 0.4625 0.4625C0.770833 0.154167 1.15517 0 1.6155 0H16.3845C16.8448 0 17.2292 0.154167 17.5375 0.4625C17.8458 0.770833 18 1.15517 18 1.6155V12.3845C18 12.8448 17.8458 13.2292 17.5375 13.5375C17.2292 13.8458 16.8448 14 16.3845 14H1.6155ZM9 7.1155L1 1.8845V12.3845C1 12.564 1.05767 12.7115 1.173 12.827C1.2885 12.9423 1.436 13 1.6155 13H16.3845C16.564 13 16.7115 12.9423 16.827 12.827C16.9423 12.7115 17 12.564 17 12.3845V1.8845L9 7.1155ZM9 6L16.6923 1H1.30775L9 6ZM1 1.8845V1V12.3845C1 12.564 1.05767 12.7115 1.173 12.827C1.2885 12.9423 1.436 13 1.6155 13H1V1.8845Z" fill="var(--fill-0, #1E293B)"/>
</svg>
