<svg preserveAspectRatio="none" width="100%" height="100%" overflow="visible" style="display: block;" viewBox="0 0 14 18" fill="none" xmlns="http://www.w3.org/2000/svg">
<path id="Vector" d="M1.6155 18C1.168 18 0.786833 17.8427 0.472 17.528C0.157333 17.2132 0 16.832 0 16.3845V7.6155C0 7.168 0.157333 6.78683 0.472 6.472C0.786833 6.15733 1.168 6 1.6155 6H3V4C3 2.88583 3.38817 1.94067 4.1645 1.1645C4.94067 0.388167 5.88583 0 7 0C8.11417 0 9.05933 0.388167 9.8355 1.1645C10.6118 1.94067 11 2.88583 11 4V6H12.3845C12.832 6 13.2132 6.15733 13.528 6.472C13.8427 6.78683 14 7.168 14 7.6155V16.3845C14 16.832 13.8427 17.2132 13.528 17.528C13.2132 17.8427 12.832 18 12.3845 18H1.6155ZM1.6155 17H12.3845C12.564 17 12.7115 16.9423 12.827 16.827C12.9423 16.7115 13 16.564 13 16.3845V7.6155C13 7.436 12.9423 7.2885 12.827 7.173C12.7115 7.05767 12.564 7 12.3845 7H1.6155C1.436 7 1.2885 7.05767 1.173 7.173C1.05767 7.2885 1 7.436 1 7.6155V16.3845C1 16.564 1.05767 16.7115 1.173 16.827C1.2885 16.9423 1.436 17 1.6155 17ZM8.06625 13.0663C8.35542 12.7773 8.5 12.4218 8.5 12C8.5 11.5782 8.35542 11.2228 8.06625 10.9338C7.77725 10.6446 7.42183 10.5 7 10.5C6.57817 10.5 6.22275 10.6446 5.93375 10.9338C5.64458 11.2228 5.5 11.5782 5.5 12C5.5 12.4218 5.64458 12.7773 5.93375 13.0663C6.22275 13.3554 6.57817 13.5 7 13.5C7.42183 13.5 7.77725 13.3554 8.06625 13.0663ZM4 6H10V4C10 3.16667 9.70833 2.45833 9.125 1.875C8.54167 1.29167 7.83333 1 7 1C6.16667 1 5.45833 1.29167 4.875 1.875C4.29167 2.45833 4 3.16667 4 4V6Z" fill="var(--fill-0, #1E293B)"/>
</svg>
