<svg preserveAspectRatio="none" width="100%" height="100%" overflow="visible" style="display: block;" viewBox="0 0 14 13.231" fill="none" xmlns="http://www.w3.org/2000/svg">
<path id="Vector" d="M4.877 5.12325C4.29233 4.53858 4 3.83083 4 3C4 2.16933 4.29233 1.46167 4.877 0.877C5.4615 0.292334 6.16917 0 7 0C7.83083 0 8.5385 0.292334 9.123 0.877C9.70767 1.46167 10 2.16933 10 3C10 3.83083 9.70767 4.53858 9.123 5.12325C8.5385 5.70775 7.83083 6 7 6C6.16917 6 5.4615 5.70775 4.877 5.12325ZM0 13.231V11.5847C0 11.1719 0.120167 10.7857 0.3605 10.426C0.601 10.0665 0.924417 9.78733 1.33075 9.5885C2.27442 9.136 3.21867 8.79658 4.1635 8.57025C5.10833 8.34408 6.05383 8.231 7 8.231C7.94617 8.231 8.89167 8.34408 9.8365 8.57025C10.7813 8.79658 11.7256 9.136 12.6693 9.5885C13.0756 9.78733 13.399 10.0665 13.6395 10.426C13.8798 10.7857 14 11.1719 14 11.5847V13.231H0ZM1 12.231H13V11.5847C13 11.3629 12.9285 11.1546 12.7855 10.9597C12.6427 10.7649 12.4449 10.6002 12.1923 10.4655C11.3693 10.0668 10.5207 9.76142 9.6465 9.54925C8.77233 9.33708 7.89017 9.231 7 9.231C6.10983 9.231 5.22767 9.33708 4.3535 9.54925C3.47933 9.76142 2.63075 10.0668 1.80775 10.4655C1.55508 10.6002 1.35733 10.7649 1.2145 10.9597C1.0715 11.1546 1 11.3629 1 11.5847V12.231ZM8.4125 4.4125C8.80417 4.02083 9 3.55 9 3C9 2.45 8.80417 1.97917 8.4125 1.5875C8.02083 1.19583 7.55 1 7 1C6.45 1 5.97917 1.19583 5.5875 1.5875C5.19583 1.97917 5 2.45 5 3C5 3.55 5.19583 4.02083 5.5875 4.4125C5.97917 4.80417 6.45 5 7 5C7.55 5 8.02083 4.80417 8.4125 4.4125Z" fill="var(--fill-0, #1E293B)"/>
</svg>
