<svg preserveAspectRatio="xMidYMid meet" width="100%" height="100%" overflow="visible" style="display: block;" viewBox="0 0 22 22" fill="none" xmlns="http://www.w3.org/2000/svg">
<g id="photo" transform="translate(3.6667 3.6667)">
<path id="Vector" d="M1.48087 14.6667C1.0589 14.6667 0.706597 14.5253 0.423958 14.2427C0.141319 13.9601 0 13.6078 0 13.1858V1.48087C0 1.0589 0.141319 0.706597 0.423958 0.423958C0.706597 0.141319 1.0589 0 1.48087 0H13.1858C13.6078 0 13.9601 0.141319 14.2427 0.423958C14.5253 0.706597 14.6667 1.0589 14.6667 1.48087V13.1858C14.6667 13.6078 14.5253 13.9601 14.2427 14.2427C13.9601 14.5253 13.6078 14.6667 13.1858 14.6667H1.48087ZM1.48087 13.75H13.1858C13.327 13.75 13.4563 13.6913 13.5738 13.5738C13.6913 13.4563 13.75 13.327 13.75 13.1858V1.48087C13.75 1.33971 13.6913 1.21038 13.5738 1.0929C13.4563 0.97541 13.327 0.916667 13.1858 0.916667H1.48087C1.33971 0.916667 1.21038 0.97541 1.0929 1.0929C0.97541 1.21038 0.916667 1.33971 0.916667 1.48087V13.1858C0.916667 13.327 0.97541 13.4563 1.0929 13.5738C1.21038 13.6913 1.33971 13.75 1.48087 13.75ZM3.20833 11.4583H11.5993L9.00808 8.00319L6.61054 11.0353L5.00637 9.09608L3.20833 11.4583Z" fill="#02AAA4"/>
</g>
</svg>
