<svg preserveAspectRatio="xMidYMid meet" width="100%" height="100%" overflow="visible" style="display: block;" viewBox="0 0 24 24" fill="none" xmlns="http://www.w3.org/2000/svg">
<g id="photo" transform="translate(-2.3 -2.3) scale(1.3)">
<path id="Vector" d="M4.95 18.7C4.49625 18.7 4.10781 18.5358 3.78469 18.2073C3.46156 17.8788 3.3 17.4931 3.3 17.05V4.95C3.3 4.50694 3.46156 4.12118 3.78469 3.79271C4.10781 3.46424 4.49625 3.3 4.95 3.3H17.05C17.5037 3.3 17.8922 3.46424 18.2153 3.79271C18.5384 4.12118 18.7 4.50694 18.7 4.95V17.05C18.7 17.4931 18.5384 17.8788 18.2153 18.2073C17.8922 18.5358 17.5037 18.7 17.05 18.7H4.95ZM4.95 17.05H17.05V4.95H4.95V17.05ZM6.05 15.4H15.95L12.65 11L10.175 14.3L8.525 12.1L6.05 15.4Z" fill="var(--fill-0, #02AAA4)"/>
</g>
</svg>
