<svg preserveAspectRatio="xMidYMid meet" width="100%" height="100%" overflow="visible" style="display: block;" viewBox="0 0 24 24" fill="none" xmlns="http://www.w3.org/2000/svg">
<g id="Group 47262" transform="translate(2 2) scale(1.429)">
<path id="Vector" d="M6.12614 5.25206C6.87273 4.73118 7.36364 3.864 7.36364 2.88235C7.36364 1.29294 6.07868 0 4.5 0C2.92132 0 1.63636 1.29294 1.63636 2.88235C1.63636 3.864 2.12727 4.73118 2.87386 5.25206C1.19495 5.91006 0 7.55094 0 9.47059V11.9412C0 13.0764 0.917591 14 2.04545 14H6.95455C8.08241 14 9 13.0764 9 11.9412V9.47059C9 7.55053 7.80505 5.91006 6.12614 5.25206ZM2.45455 2.88235C2.45455 1.74712 3.37214 0.823529 4.5 0.823529C5.62786 0.823529 6.54545 1.74712 6.54545 2.88235C6.54545 4.01759 5.62786 4.94118 4.5 4.94118C3.37214 4.94118 2.45455 4.01759 2.45455 2.88235ZM8.18182 11.9412C8.18182 12.6222 7.63118 13.1765 6.95455 13.1765H2.04545C1.36882 13.1765 0.818182 12.6222 0.818182 11.9412V9.47059C0.818182 7.42741 2.46968 5.76471 4.5 5.76471C6.53032 5.76471 8.18182 7.42741 8.18182 9.47059V11.9412Z" fill="var(--fill-0, #4BBBFB)"/>
<path id="Union" d="M12 5H14V6H12V8H11V6H9V5H11V3H12V5Z" fill="var(--fill-0, #4BBBFB)"/>
</g>
</svg>
