<svg preserveAspectRatio="xMidYMid meet" width="100%" height="100%" overflow="visible" style="display: block;" viewBox="0 0 24 24" fill="none" xmlns="http://www.w3.org/2000/svg">
<g id="Icon" transform="translate(2 4.46) scale(1.073)">
<path id="Vector" d="M16.428 5.71795C16.9776 5.27431 17.3347 4.5759 17.3347 3.78931C17.3347 2.45112 16.3069 1.36284 15.0431 1.36284C13.7793 1.36284 12.7516 2.45112 12.7516 3.78931C12.7516 4.57873 13.111 5.27876 13.6636 5.7224C13.6052 5.7499 13.5452 5.77336 13.4887 5.8045C13.3015 5.90722 13.2282 6.15148 13.3252 6.34965C13.4226 6.54821 13.6537 6.62505 13.8401 6.52233C14.2052 6.32174 14.6215 6.21579 15.0431 6.21579C16.517 6.21579 17.7166 7.48564 17.7166 9.04667V10.6643C17.7166 11.3332 17.2026 11.8775 16.5709 11.8775H14.6383C14.4271 11.8775 14.2564 12.0587 14.2564 12.282C14.2564 12.5052 14.4271 12.6864 14.6383 12.6864H16.5709C17.6238 12.6864 18.4805 11.7793 18.4805 10.6643V9.04667C18.4805 7.56167 17.6353 6.28332 16.428 5.71795ZM13.5154 3.78931C13.5154 2.89718 14.2006 2.17167 15.0431 2.17167C15.8857 2.17167 16.5709 2.89718 16.5709 3.78931C16.5709 4.68145 15.8857 5.40696 15.0431 5.40696C14.2006 5.40696 13.5154 4.68145 13.5154 3.78931Z" fill="var(--fill-0, #8B5CF6)" stroke="var(--stroke-0, #8B5CF6)" stroke-width="0.3"/>
<path id="Vector_2" d="M5.30529 6.34969C5.4023 6.15153 5.32897 5.90727 5.14182 5.80454C5.0853 5.7734 5.02533 5.74995 4.9669 5.72245C5.51955 5.27921 5.87895 4.57877 5.87895 3.78936C5.87895 2.45116 4.85117 1.36289 3.58737 1.36289C2.32356 1.36289 1.29579 2.45116 1.29579 3.78936C1.29579 4.57594 1.65289 5.27436 2.20249 5.718C0.995211 6.28337 0.15 7.56171 0.15 9.04671V10.6644C0.15 11.7793 1.00667 12.6864 2.05965 12.6864H3.99221C4.20342 12.6864 4.37414 12.5052 4.37414 12.282C4.37414 12.0588 4.20342 11.8776 3.99221 11.8776H2.05965C1.42794 11.8776 0.91386 11.3333 0.91386 10.6644V9.04671C0.91386 7.48568 2.1135 6.21583 3.58737 6.21583C4.00902 6.21583 4.42532 6.32179 4.79045 6.52238C4.97645 6.62429 5.2079 6.54785 5.30529 6.34969ZM2.05965 3.78936C2.05965 2.89723 2.74483 2.17171 3.58737 2.17171C4.4299 2.17171 5.11509 2.89723 5.11509 3.78936C5.11509 4.68149 4.4299 5.40701 3.58737 5.40701C2.74483 5.40701 2.05965 4.68149 2.05965 3.78936Z" fill="var(--fill-0, #8B5CF6)" stroke="var(--stroke-0, #8B5CF6)" stroke-width="0.3"/>
<path id="Vector_3" d="M10.8303 5.30827C11.5274 4.79669 11.9857 3.945 11.9857 2.98088C11.9857 1.41985 10.786 0.15 9.31216 0.15C7.8383 0.15 6.63866 1.41985 6.63866 2.98088C6.63866 3.945 7.09697 4.79669 7.79399 5.30827C6.22655 5.95452 5.11094 7.5661 5.11094 9.45147V11.8779C5.11094 12.9929 5.96761 13.9 7.02059 13.9H11.6037C12.6567 13.9 13.5134 12.9929 13.5134 11.8779V9.45147C13.5134 7.5657 12.3978 5.95452 10.8303 5.30827ZM7.40252 2.98088C7.40252 1.86592 8.25918 0.958824 9.31216 0.958824C10.3651 0.958824 11.2218 1.86592 11.2218 2.98088C11.2218 4.09585 10.3651 5.00294 9.31216 5.00294C8.25918 5.00294 7.40252 4.09585 7.40252 2.98088ZM12.7495 11.8779C12.7495 12.5468 12.2355 13.0912 11.6037 13.0912H7.02059C6.38887 13.0912 5.8748 12.5468 5.8748 11.8779V9.45147C5.8748 7.44478 7.41665 5.81176 9.31216 5.81176C11.2077 5.81176 12.7495 7.44478 12.7495 9.45147V11.8779Z" fill="var(--fill-0, #8B5CF6)" stroke="var(--stroke-0, #8B5CF6)" stroke-width="0.3"/>
</g>
</svg>
