<svg preserveAspectRatio="xMidYMid meet" width="100%" height="100%" overflow="visible" style="display: block;" viewBox="0 0 24 24" fill="none" xmlns="http://www.w3.org/2000/svg">
<g id="Icon" transform="translate(2.92 2) scale(1.091)">
<path id="Star 1 (Stroke)" d="M8.98058 3.36366C9.28343 2.54545 10.4401 2.54545 10.743 3.36366L12.1318 7.1152L15.8833 8.50402C16.7016 8.80687 16.7016 9.96357 15.8833 10.2664L12.1318 11.6552L10.743 15.4068C10.4401 16.225 9.28343 16.225 8.98058 15.4068L7.59176 11.6552L3.84022 10.2664C3.02201 9.96357 3.02201 8.80687 3.84022 8.50402L7.59176 7.1152L8.98058 3.36366ZM8.47389 7.44198C8.37868 7.6991 8.17566 7.90211 7.91854 7.99732L4.16608 9.38522L7.91854 10.7731C8.17566 10.8683 8.37868 11.0713 8.47389 11.3285L9.86178 15.0809L11.2497 11.3285C11.3449 11.0713 11.5479 10.8683 11.805 10.7731L15.5575 9.38522L11.805 7.99732C11.5479 7.90211 11.3449 7.6991 11.2497 7.44198L9.86178 3.68952L8.47389 7.44198Z" fill="var(--fill-0, #10B981)" stroke="var(--stroke-0, #10B981)" stroke-width="0.3"/>
<path id="Star 2" d="M2.46864 0.760352C2.56529 0.499166 2.93471 0.499166 3.03136 0.760352L3.44488 1.87788C3.47526 1.95999 3.54001 2.02474 3.62212 2.05512L4.73965 2.46864C5.00083 2.56529 5.00083 2.93471 4.73965 3.03136L3.62212 3.44488C3.54001 3.47526 3.47526 3.54001 3.44488 3.62212L3.03136 4.73965C2.93471 5.00083 2.56529 5.00083 2.46864 4.73965L2.05512 3.62212C2.02474 3.54001 1.95999 3.47526 1.87788 3.44488L0.760352 3.03136C0.499166 2.93471 0.499166 2.56529 0.760352 2.46864L1.87788 2.05512C1.95999 2.02474 2.02474 1.95999 2.05512 1.87788L2.46864 0.760352Z" fill="var(--fill-0, #10B981)"/>
<path id="Star 3" d="M2.46864 13.5924C2.56529 13.3312 2.93471 13.3312 3.03136 13.5924L3.44488 14.7099C3.47526 14.792 3.54001 14.8568 3.62212 14.8872L4.73965 15.3007C5.00083 15.3973 5.00083 15.7667 4.73965 15.8634L3.62212 16.2769C3.54001 16.3073 3.47526 16.372 3.44488 16.4542L3.03136 17.5717C2.93471 17.8329 2.56529 17.8329 2.46864 17.5717L2.05512 16.4542C2.02474 16.372 1.95999 16.3073 1.87788 16.2769L0.760352 15.8634C0.499166 15.7667 0.499166 15.3973 0.760352 15.3007L1.87788 14.8872C1.95999 14.8568 2.02474 14.792 2.05512 14.7099L2.46864 13.5924Z" fill="var(--fill-0, #10B981)"/>
</g>
</svg>
