<svg preserveAspectRatio="xMidYMid meet" width="100%" height="100%" overflow="visible" style="display: block;" viewBox="0 0 24 24" fill="none" xmlns="http://www.w3.org/2000/svg">
<g id="fi_16924039" transform="translate(-3.3 -2.7) scale(1.45)">
<path id="Vector" d="M12.6536 8.7306C13.4141 8.20352 13.9141 7.32602 13.9141 6.33268C13.9141 4.72435 12.6053 3.41602 10.9974 3.41602C9.38948 3.41602 8.08073 4.72435 8.08073 6.33268C8.08073 7.32602 8.58073 8.20352 9.34115 8.7306C7.63115 9.39643 6.41406 11.0568 6.41406 12.9994V15.4994C6.41406 16.6481 7.34865 17.5827 8.4974 17.5827H13.4974C14.6461 17.5827 15.5807 16.6481 15.5807 15.4994V12.9994C15.5807 11.0564 14.3636 9.39643 12.6536 8.7306ZM8.91406 6.33268C8.91406 5.18393 9.84865 4.24935 10.9974 4.24935C12.1461 4.24935 13.0807 5.18393 13.0807 6.33268C13.0807 7.48143 12.1461 8.41602 10.9974 8.41602C9.84865 8.41602 8.91406 7.48143 8.91406 6.33268ZM14.7474 15.4994C14.7474 16.1885 14.1866 16.7494 13.4974 16.7494H8.4974C7.80823 16.7494 7.2474 16.1885 7.2474 15.4994V12.9994C7.2474 10.9318 8.92948 9.24935 10.9974 9.24935C13.0653 9.24935 14.7474 10.9318 14.7474 12.9994V15.4994Z" fill="var(--fill-0, #F59E0B)" stroke="var(--stroke-0, #F59E0B)" stroke-width="0.3"/>
</g>
</svg>
