<svg preserveAspectRatio="none" width="100%" height="100%" overflow="visible" style="display: block;" viewBox="0 0 18 14" fill="none" xmlns="http://www.w3.org/2000/svg">
<path id="Vector" d="M9.00075 11.3078C9.14258 11.3078 9.26125 11.2597 9.35675 11.1637C9.45225 11.0677 9.5 10.9488 9.5 10.807C9.5 10.6652 9.452 10.5465 9.356 10.451C9.26 10.3555 9.14108 10.3078 8.99925 10.3078C8.85742 10.3078 8.73875 10.3558 8.64325 10.4518C8.54775 10.5476 8.5 10.6664 8.5 10.8082C8.5 10.9502 8.548 11.069 8.644 11.1645C8.74 11.26 8.85892 11.3078 9.00075 11.3078ZM9.00075 7.5C9.14258 7.5 9.26125 7.452 9.35675 7.356C9.45225 7.26 9.5 7.14108 9.5 6.99925C9.5 6.85742 9.452 6.73875 9.356 6.64325C9.26 6.54775 9.14108 6.5 8.99925 6.5C8.85742 6.5 8.73875 6.548 8.64325 6.644C8.54775 6.74 8.5 6.85892 8.5 7.00075C8.5 7.14258 8.548 7.26125 8.644 7.35675C8.74 7.45225 8.85892 7.5 9.00075 7.5ZM9.00075 3.69225C9.14258 3.69225 9.26125 3.64425 9.35675 3.54825C9.45225 3.45242 9.5 3.33358 9.5 3.19175C9.5 3.04975 9.452 2.931 9.356 2.8355C9.26 2.74 9.14108 2.69225 8.99925 2.69225C8.85742 2.69225 8.73875 2.74025 8.64325 2.83625C8.54775 2.93225 8.5 3.05117 8.5 3.193C8.5 3.33483 8.548 3.4535 8.644 3.549C8.74 3.6445 8.85892 3.69225 9.00075 3.69225ZM16.3845 14H1.6155C1.17117 14 0.790833 13.8418 0.4745 13.5255C0.158167 13.2092 0 12.8288 0 12.3845V9.80775C0.5885 9.58975 1.06892 9.22725 1.44125 8.72025C1.81375 8.21308 2 7.63967 2 7C2 6.36033 1.81375 5.78692 1.44125 5.27975C1.06892 4.77275 0.5885 4.41025 0 4.19225V1.6155C0 1.17117 0.158167 0.790833 0.4745 0.4745C0.790833 0.158166 1.17117 0 1.6155 0H16.3845C16.8288 0 17.2092 0.158166 17.5255 0.4745C17.8418 0.790833 18 1.17117 18 1.6155V4.19225C17.4115 4.41025 16.9311 4.77275 16.5587 5.27975C16.1862 5.78692 16 6.36033 16 7C16 7.63967 16.1862 8.21308 16.5587 8.72025C16.9311 9.22725 17.4115 9.58975 18 9.80775V12.3845C18 12.8288 17.8418 13.2092 17.5255 13.5255C17.2092 13.8418 16.8288 14 16.3845 14ZM16.3845 13C16.564 13 16.7115 12.9423 16.827 12.827C16.9423 12.7115 17 12.564 17 12.3845V10.45C16.3833 10.0833 15.8958 9.59583 15.5375 8.9875C15.1792 8.37917 15 7.71667 15 7C15 6.28333 15.1792 5.62083 15.5375 5.0125C15.8958 4.40417 16.3833 3.91667 17 3.55V1.6155C17 1.436 16.9423 1.2885 16.827 1.173C16.7115 1.05767 16.564 1 16.3845 1H1.6155C1.436 1 1.2885 1.05767 1.173 1.173C1.05767 1.2885 1 1.436 1 1.6155V3.55C1.61667 3.91667 2.10417 4.40417 2.4625 5.0125C2.82083 5.62083 3 6.28333 3 7C3 7.71667 2.82083 8.37917 2.4625 8.9875C2.10417 9.59583 1.61667 10.0833 1 10.45V12.3845C1 12.564 1.05767 12.7115 1.173 12.827C1.2885 12.9423 1.436 13 1.6155 13H16.3845Z" fill="var(--fill-0, #1E293B)"/>
</svg>
