<svg preserveAspectRatio="none" width="100%" height="100%" overflow="visible" style="display: block;" viewBox="0 0 18 18" fill="none" xmlns="http://www.w3.org/2000/svg">
<g id="IC_Nevi">
<path id="Union" d="M7.06641 2C9.86425 2.00014 12.1318 4.26853 12.1318 7.06641C12.1318 8.2462 11.7271 9.33035 11.0508 10.1914L16 15.1406L15.1406 16L10.1914 11.0508C9.33035 11.7271 8.2462 12.1318 7.06641 12.1318C4.26853 12.1318 2.00014 9.86425 2 7.06641C2 4.26845 4.26845 2 7.06641 2ZM7.06641 3.21582C4.93996 3.21582 3.21582 4.93996 3.21582 7.06641C3.21596 9.19274 4.94004 10.916 7.06641 10.916C9.19266 10.9159 10.9159 9.19266 10.916 7.06641C10.916 4.94004 9.19274 3.21596 7.06641 3.21582Z" fill="var(--fill-0, #006FFF)"/>
</g>
</svg>
