<svg preserveAspectRatio="none" width="100%" height="100%" overflow="visible" style="display: block;" viewBox="0 0 18 14" fill="none" xmlns="http://www.w3.org/2000/svg">
<path id="Vector" d="M1.6155 14C1.17117 14 0.790833 13.8418 0.4745 13.5255C0.158167 13.2092 0 12.8288 0 12.3845V1.6155C0 1.17117 0.158167 0.790833 0.4745 0.4745C0.790833 0.158166 1.17117 0 1.6155 0H11.827C12.0827 0 12.3249 0.0554993 12.5538 0.166499C12.7826 0.277499 12.9711 0.431 13.1193 0.627L18 7L13.1193 13.373C12.9711 13.569 12.7826 13.7225 12.5538 13.8335C12.3249 13.9445 12.0827 14 11.827 14H1.6155ZM1.6155 13H11.827C11.9295 13 12.0224 12.9808 12.1057 12.9423C12.1891 12.9038 12.2628 12.8461 12.327 12.7693L16.75 7L12.327 1.23075C12.2628 1.15392 12.1891 1.09625 12.1057 1.05775C12.0224 1.01925 11.9295 1 11.827 1H1.6155C1.436 1 1.2885 1.05767 1.173 1.173C1.05767 1.2885 1 1.436 1 1.6155V12.3845C1 12.564 1.05767 12.7115 1.173 12.827C1.2885 12.9423 1.436 13 1.6155 13Z" fill="var(--fill-0, #1E293B)"/>
</svg>
