<svg preserveAspectRatio="none" width="100%" height="100%" overflow="visible" style="display: block;" viewBox="0 0 19.846 13" fill="none" xmlns="http://www.w3.org/2000/svg">
<path id="Vector" d="M12.5143 9.08675C13.2226 8.37542 13.5768 7.51167 13.5768 6.4955C13.5768 5.47933 13.2211 4.61708 12.5097 3.90875C11.7984 3.20042 10.9347 2.84625 9.9185 2.84625C8.90233 2.84625 8.04008 3.20192 7.33175 3.91325C6.62342 4.62458 6.26925 5.48833 6.26925 6.5045C6.26925 7.52067 6.62492 8.38292 7.33625 9.09125C8.04758 9.79958 8.91133 10.1537 9.9275 10.1537C10.9437 10.1537 11.8059 9.79808 12.5143 9.08675ZM8.0105 8.4125C7.4855 7.8875 7.223 7.25 7.223 6.5C7.223 5.75 7.4855 5.1125 8.0105 4.5875C8.5355 4.0625 9.173 3.8 9.923 3.8C10.673 3.8 11.3105 4.0625 11.8355 4.5875C12.3605 5.1125 12.623 5.75 12.623 6.5C12.623 7.25 12.3605 7.8875 11.8355 8.4125C11.3105 8.9375 10.673 9.2 9.923 9.2C9.173 9.2 8.5355 8.9375 8.0105 8.4125ZM4.00375 11.2317C2.22175 10.0529 0.887167 8.47567 0 6.5C0.887167 4.52433 2.22083 2.94708 4.001 1.76825C5.78117 0.589416 7.75425 0 9.92025 0C12.0863 0 14.0603 0.589416 15.8423 1.76825C17.6243 2.94708 18.9588 4.52433 19.846 6.5C18.9588 8.47567 17.6252 10.0529 15.845 11.2317C14.0648 12.4106 12.0917 13 9.92575 13C7.75975 13 5.78575 12.4106 4.00375 11.2317ZM15.1105 10.5125C16.6855 9.52083 17.8897 8.18333 18.723 6.5C17.8897 4.81667 16.6855 3.47917 15.1105 2.4875C13.5355 1.49583 11.8063 1 9.923 1C8.03967 1 6.3105 1.49583 4.7355 2.4875C3.1605 3.47917 1.95633 4.81667 1.123 6.5C1.95633 8.18333 3.1605 9.52083 4.7355 10.5125C6.3105 11.5042 8.03967 12 9.923 12C11.8063 12 13.5355 11.5042 15.1105 10.5125Z" fill="var(--fill-0, #1E293B)"/>
</svg>
