<svg preserveAspectRatio="none" width="100%" height="100%" overflow="visible" style="display: block;" viewBox="0 0 19.846 17.5693" fill="none" xmlns="http://www.w3.org/2000/svg">
<path id="Vector" d="M13.3692 9.077L12.573 8.28075C12.723 7.40775 12.4756 6.652 11.8307 6.0135C11.1859 5.375 10.4333 5.13075 9.573 5.28075L8.77675 4.4845C8.94475 4.41533 9.12008 4.36342 9.30275 4.32875C9.48542 4.29425 9.69217 4.277 9.923 4.277C10.9422 4.277 11.8059 4.63117 12.5143 5.3395C13.2226 6.04783 13.5768 6.91158 13.5768 7.93075C13.5768 8.16158 13.5595 8.37475 13.525 8.57025C13.4903 8.76575 13.4384 8.93467 13.3692 9.077ZM16.5307 12.15L15.773 11.4808C16.4063 10.9974 16.9688 10.4683 17.4605 9.89325C17.9522 9.31825 18.373 8.66408 18.723 7.93075C17.8897 6.24742 16.6938 4.90992 15.1355 3.91825C13.5772 2.92658 11.8397 2.43075 9.923 2.43075C9.43967 2.43075 8.96467 2.46408 8.498 2.53075C8.03133 2.59742 7.573 2.69742 7.123 2.83075L6.34225 2.05C6.92308 1.83083 7.51408 1.67283 8.11525 1.576C8.71658 1.47917 9.31917 1.43075 9.923 1.43075C12.0935 1.43075 14.0787 2.02725 15.8787 3.22025C17.6787 4.41308 19.0012 5.98325 19.846 7.93075C19.4883 8.73458 19.0355 9.49 18.4875 10.197C17.9393 10.9042 17.2871 11.5552 16.5307 12.15ZM17.646 17.5693L13.7537 13.6885C13.3114 13.8847 12.7624 14.0574 12.1067 14.2068C11.4509 14.3561 10.723 14.4308 9.923 14.4308C7.73967 14.4308 5.75442 13.8343 3.96725 12.6413C2.18008 11.4484 0.857667 9.87825 0 7.93075C0.388333 7.04742 0.9005 6.22017 1.5365 5.449C2.17233 4.67783 2.85117 4.03075 3.573 3.50775L0.7845 0.70775L1.49225 0L18.3537 16.8615L17.646 17.5693ZM4.28075 4.21525C3.70758 4.62308 3.12167 5.159 2.523 5.823C1.92433 6.48717 1.45767 7.18975 1.123 7.93075C1.95633 9.61408 3.15217 10.9516 4.7105 11.9433C6.26883 12.9349 8.00633 13.4308 9.923 13.4308C10.5 13.4308 11.0814 13.3747 11.6673 13.2625C12.2531 13.1503 12.6935 13.0372 12.9885 12.923L11.3575 11.2808C11.1998 11.3693 10.98 11.442 10.698 11.499C10.416 11.556 10.1577 11.5845 9.923 11.5845C8.90383 11.5845 8.04008 11.2303 7.33175 10.522C6.62342 9.81367 6.26925 8.94992 6.26925 7.93075C6.26925 7.70892 6.29775 7.46017 6.35475 7.1845C6.41175 6.909 6.4845 6.67958 6.573 6.49625L4.28075 4.21525Z" fill="var(--fill-0, #1E293B)"/>
</svg>
